<svg width="612" height="261" viewBox="0 0 612 261" fill="none" xmlns="http://www.w3.org/2000/svg">
    <path d="M625 -47H-38.1869V55.2828H-6.94007C52.8599 55.2828 17.8419 101.867 49.0887 101.867C73.8707 101.867 87.1829 34.5 105.5 34.5C129.204 34.5 147.74 84.6512 147.74 119.589C147.74 154.528 188.145 155.54 188.145 119.589C188.145 83.6385 191.316 55.2828 212.865 55.2828C234.415 55.2828 319.85 81.1067 319.85 175.794C319.85 270.482 387.193 270.988 387.193 175.794C387.193 80.6004 480.618 45.6501 480.618 131.223C480.618 216.797 532.876 220.847 532.876 134.768C532.876 48.6882 625 67.4353 625 67.4353V-47Z" fill="#013243"/>
    </svg>
    