<svg width="612" height="261" viewBox="0 0 612 261" fill="none" xmlns="http://www.w3.org/2000/svg">
    <path d="M625 -47H-38.1869V55.2828H-6.94007C52.8599 55.2828 17.8419 101.867 49.0887 101.867C73.8707 101.867 87.1829 34.5 105.5 34.5C129.204 34.5 147.74 84.6512 147.74 119.589C147.74 154.528 188.145 155.54 188.145 119.589C188.145 83.6385 191.316 55.2828 212.865 55.2828C234.415 55.2828 319.85 81.1067 319.85 175.794C319.85 270.482 387.193 270.988 387.193 175.794C387.193 80.6004 480.618 45.6501 480.618 131.223C480.618 216.797 532.876 220.847 532.876 134.768C532.876 48.6882 625 67.4353 625 67.4353V-47Z" fill="#214B5A" fill-opacity="0.8"/>
    <mask id="mask0_781_2210" style="mask-type:luminance" maskUnits="userSpaceOnUse" x="138" y="16" width="302" height="232">
    <path d="M439.473 16H138V247.149H439.473V16Z" fill="white"/>
    </mask>
    <g mask="url(#mask0_781_2210)">
    <path d="M300.539 87.1936L241.187 135.154V144.094H303.78H366.374V135.154L307.021 87.1936C305.132 85.6709 302.429 85.6709 300.539 87.1936Z" fill="#9DD616"/>
    <mask id="mask1_781_2210" style="mask-type:luminance" maskUnits="userSpaceOnUse" x="240" y="86" width="134" height="109">
    <path d="M240.521 86.1238H373.669V194.36H240.521V86.1238Z" fill="white"/>
    </mask>
    <g mask="url(#mask1_781_2210)">
    <path d="M354.798 223.293H253.959C251.076 223.293 248.737 220.981 248.737 218.132V120.413C248.737 117.563 251.076 115.252 253.959 115.252H354.798C357.682 115.252 360.02 117.563 360.02 120.413V218.132C360.02 220.981 357.682 223.293 354.798 223.293Z" fill="#FDFDFD"/>
    </g>
    <mask id="mask2_781_2210" style="mask-type:luminance" maskUnits="userSpaceOnUse" x="240" y="138" width="127" height="77">
    <path d="M240.983 138.845H366.342V214.672H240.983V138.845Z" fill="white"/>
    </mask>
    <g mask="url(#mask2_781_2210)">
    <path d="M366.456 127.202V197.751C366.456 200.601 364.144 202.906 361.295 202.906H246.429C243.58 202.906 241.268 200.601 241.268 197.751V127.202L304.547 177.113L366.456 127.202Z" fill="#CCFC5F"/>
    <path d="M365.759 200.332L307.788 153.588C305.899 152.065 303.202 152.065 301.313 153.588L242.455 201.041C243.403 202.185 244.828 202.906 246.424 202.906H361.295C363.203 202.906 364.867 201.867 365.759 200.332Z" fill="#9DD616"/>
    </g>
    <path d="M352.345 57.3506L358.977 51.7011L363.468 56.9712L356.831 62.6163L352.345 57.3506Z" fill="#EEF3E1"/>
    <path d="M264.56 58.4187L275.441 49.1495L282.81 57.7963L271.921 67.0583L264.56 58.4187Z" fill="#9DD616"/>
    <path d="M269.366 223.35L276.292 217.45L280.982 222.954L274.051 228.849L269.366 223.35Z" fill="#9DD616"/>
    <path d="M190.247 87.1005L196.55 81.7317L200.818 86.7401L194.511 92.1047L190.247 87.1005Z" fill="#EEF3E1"/>
    <path d="M336.654 106.645L341.294 99.9123L346.645 103.599L342 110.328L336.654 106.645Z" fill="#EEF3E1"/>
    <path d="M352.692 215.347L356.838 211.815L359.645 215.11L355.496 218.638L352.692 215.347Z" fill="#EEF3E1"/>
    <path d="M221.44 158.046L225.586 154.514L228.394 157.809L224.245 161.338L221.44 158.046Z" fill="#EEF3E1"/>
    <path d="M323.064 187.532L325.178 181.786L329.746 183.47L327.631 189.216L323.064 187.532Z" fill="#E4E6EB"/>
    <path d="M190.063 163.378L195.771 165.592L194.008 170.129L188.299 167.915L190.063 163.378Z" fill="#9DD616"/>
    <path d="M294.501 85.1603L296.615 79.4143L301.182 81.098L299.068 86.844L294.501 85.1603Z" fill="#CAD6AD"/>
    <path d="M203.036 52.1235L205.15 46.3775L209.718 48.0611L207.603 53.8072L203.036 52.1235Z" fill="#FDFDFD"/>
    <path d="M414.477 167.367L420.564 168.028L420.035 172.867L413.949 172.206L414.477 167.367Z" fill="#FDFDFD"/>
    <path d="M266.773 136.116L262.772 131.481L266.459 128.303L270.46 132.937L266.773 136.116Z" fill="#EEF3E1"/>
    <path d="M384.685 90.2856L394.924 84.7938L399.458 93.2392L389.218 98.7311L384.685 90.2856Z" fill="#CAD6AD"/>
    <path d="M379.503 113.969C383.307 105.96 392.903 102.547 400.919 106.351C408.943 110.149 412.357 119.729 408.552 127.738C405.1 134.994 396.908 138.477 389.436 136.245L385.01 139.29L384.573 133.844C378.429 129.395 376.127 121.072 379.503 113.969Z" fill="#9DD616"/>
    <path d="M393.253 128.169L387.001 123.605L389.157 120.659L392.555 123.137L399.305 114.538L402.182 116.793L393.253 128.169Z" fill="#FFFEFE"/>
    <mask id="mask3_781_2210" style="mask-type:luminance" maskUnits="userSpaceOnUse" x="229" y="161" width="46" height="48">
    <path d="M229.985 161.712H274.014V208.798H229.985V161.712Z" fill="white"/>
    </mask>
    <g mask="url(#mask3_781_2210)">
    <path d="M229.781 171.556V206.498C229.781 208.106 231.01 209.408 232.533 209.408H271.058C272.581 209.408 273.81 208.106 273.81 206.498V171.556H229.781Z" fill="#FDFDFD"/>
    <path d="M229.781 162.323H273.81V174.327H229.781V162.323Z" fill="#E8E8E8"/>
    <path d="M235.285 166.94H238.037V169.71H235.285V166.94Z" fill="#FDFDFD"/>
    <path d="M240.788 166.94H243.54V169.71H240.788V166.94Z" fill="#FDFDFD"/>
    <path d="M266.93 169.71H247.668C246.91 169.71 246.292 169.086 246.292 168.322C246.292 167.557 246.91 166.94 247.668 166.94H266.93C267.689 166.94 268.306 167.557 268.306 168.322C268.306 169.086 267.689 169.71 266.93 169.71Z" fill="#FDFDFD"/>
    <path d="M236.202 191.868H244.457V202.025H236.202V191.868Z" fill="#EEF3E1"/>
    <path d="M247.209 179.865H255.465V202.026H247.209V179.865Z" fill="#9DD616"/>
    <path d="M258.216 185.405H266.472V202.026H258.216V185.405Z" fill="#CAD6AD"/>
    <path d="M267.848 203.87H234.826C234.068 203.87 233.45 203.246 233.45 202.482C233.45 201.718 234.068 201.1 234.826 201.1H267.848C268.606 201.1 269.224 201.718 269.224 202.482C269.224 203.246 268.606 203.87 267.848 203.87Z" fill="#77959E"/>
    </g>
    </g>
    </svg>
    