<svg width="292" height="202" viewBox="0 0 292 202" fill="none" xmlns="http://www.w3.org/2000/svg">
    <mask id="mask0_783_2273" style="mask-type:luminance" maskUnits="userSpaceOnUse" x="0" y="0" width="292" height="202">
    <path d="M291.778 0H0V202H291.778V0Z" fill="white"/>
    </mask>
    <g mask="url(#mask0_783_2273)">
    <path d="M257.238 175.154C257.238 175.756 206.499 176.244 143.909 176.244C81.319 176.244 30.5797 175.756 30.5797 175.154C30.5797 174.553 81.319 174.065 143.909 174.065C206.499 174.065 257.238 174.553 257.238 175.154Z" fill="#CAD6AD"/>
    <path d="M105.349 95.2348V43.6739C105.349 40.5024 107.92 37.9316 111.092 37.9316H211.688C214.86 37.9316 217.431 40.5024 217.431 43.6739V95.2348C217.431 98.4063 214.86 100.977 211.688 100.977H111.092C107.92 100.977 105.349 98.4063 105.349 95.2348Z" fill="#EEF3E1"/>
    <path d="M211.628 46.1754H111.152C109.876 46.1754 108.842 45.1412 108.842 43.8654V43.6772C108.842 42.4015 109.876 41.3672 111.152 41.3672H211.628C212.904 41.3672 213.938 42.4015 213.938 43.6772V43.8654C213.938 45.1412 212.904 46.1754 211.628 46.1754Z" fill="#FDFDFD"/>
    <path d="M112.233 44.8503H111.849C111.359 44.8503 110.962 44.4533 110.962 43.9636V43.579C110.962 43.0893 111.359 42.6923 111.849 42.6923H112.233C112.723 42.6923 113.12 43.0893 113.12 43.579V43.9636C113.12 44.4533 112.723 44.8503 112.233 44.8503Z" fill="#DE585F"/>
    <path d="M115.395 44.8503H115.01C114.52 44.8503 114.123 44.4533 114.123 43.9636V43.579C114.123 43.0893 114.52 42.6923 115.01 42.6923H115.395C115.884 42.6923 116.281 43.0893 116.281 43.579V43.9636C116.281 44.4533 115.884 44.8503 115.395 44.8503Z" fill="#FAAF3A"/>
    <path d="M118.556 44.8503H118.171C117.682 44.8503 117.285 44.4533 117.285 43.9636V43.579C117.285 43.0893 117.682 42.6923 118.171 42.6923H118.556C119.046 42.6923 119.443 43.0893 119.443 43.579V43.9636C119.443 44.4533 119.046 44.8503 118.556 44.8503Z" fill="#D9DF20"/>
    <path d="M190.45 74.185H132.865C130.3 74.185 128.221 72.1058 128.221 69.5408V69.1623C128.221 66.5973 130.3 64.5181 132.865 64.5181H190.45C193.015 64.5181 195.095 66.5973 195.095 69.1623V69.5408C195.095 72.1058 193.015 74.185 190.45 74.185Z" fill="#FDFDFD"/>
    <path d="M148.926 64.5181H133.054C130.385 64.5181 128.221 66.6822 128.221 69.3516C128.221 72.0209 130.385 74.185 133.054 74.185H148.926V64.5181Z" fill="#9DD616"/>
    <path d="M134.552 67.6894C134.781 67.6478 135.099 67.6166 135.531 67.6166C136 67.6166 136.344 67.7155 136.568 67.903C136.776 68.0749 136.911 68.3508 136.911 68.6788C136.911 69.0122 136.807 69.2881 136.609 69.4756C136.354 69.7308 135.953 69.8508 135.5 69.8508C135.38 69.8508 135.271 69.8453 135.188 69.8297V71.1526H134.552V67.6894ZM135.188 69.3246C135.266 69.3454 135.37 69.3506 135.5 69.3506C135.979 69.3506 136.271 69.1163 136.271 68.7048C136.271 68.3143 136 68.1059 135.557 68.1059C135.38 68.1059 135.255 68.1216 135.188 68.1371V69.3246Z" fill="#FDFDFD"/>
    <path d="M137.797 70.1579L137.495 71.1525H136.833L137.958 67.6425H138.776L139.916 71.1525H139.229L138.911 70.1579H137.797ZM138.802 69.6734L138.526 68.809C138.458 68.5954 138.401 68.3559 138.349 68.1528H138.338C138.286 68.3559 138.234 68.6007 138.172 68.809L137.901 69.6734H138.802Z" fill="#FDFDFD"/>
    <path d="M140.391 70.4547C140.599 70.5746 140.911 70.6787 141.239 70.6787C141.651 70.6787 141.88 70.486 141.88 70.1996C141.88 69.934 141.703 69.7778 141.255 69.6162C140.677 69.4079 140.307 69.1007 140.307 68.5956C140.307 68.0227 140.786 67.5851 141.547 67.5851C141.927 67.5851 142.208 67.6685 142.39 67.7623L142.234 68.2779C142.109 68.2101 141.864 68.1112 141.536 68.1112C141.13 68.1112 140.953 68.33 140.953 68.533C140.953 68.8039 141.156 68.9288 141.625 69.1112C142.234 69.3403 142.531 69.6475 142.531 70.1526C142.531 70.7151 142.104 71.2047 141.198 71.2047C140.828 71.2047 140.443 71.1005 140.25 70.9859L140.391 70.4547Z" fill="#FDFDFD"/>
    <path d="M143.094 70.4547C143.302 70.5746 143.614 70.6787 143.942 70.6787C144.354 70.6787 144.583 70.486 144.583 70.1996C144.583 69.934 144.406 69.7778 143.958 69.6162C143.38 69.4079 143.01 69.1007 143.01 68.5956C143.01 68.0227 143.489 67.5851 144.25 67.5851C144.63 67.5851 144.911 67.6685 145.093 67.7623L144.937 68.2779C144.812 68.2101 144.567 68.1112 144.239 68.1112C143.833 68.1112 143.656 68.33 143.656 68.533C143.656 68.8039 143.859 68.9288 144.328 69.1112C144.937 69.3403 145.234 69.6475 145.234 70.1526C145.234 70.7151 144.807 71.2047 143.901 71.2047C143.531 71.2047 143.146 71.1005 142.953 70.9859L143.094 70.4547Z" fill="#FDFDFD"/>
    <path d="M122.617 128.763C122.617 128.763 121.653 127.057 125.527 127.147C126.927 127.18 137.093 127.986 139.053 128C142.334 128.024 144.552 131.355 143.307 134.391L131.734 162.609H126.881L131.465 139.236C131.465 139.236 107.769 145.439 106.337 142.51C105.258 140.302 119.285 129.413 122.617 128.763Z" fill="#767676"/>
    <path d="M103.261 126.69C103.261 126.69 110.484 125.767 114.358 125.858C118.233 125.949 125.956 138.227 125.956 138.227L113.282 165.74L108.952 164.36L115.605 138.423C115.605 138.423 98.5176 138.945 97.0857 136.015C96.007 133.808 99.9295 127.34 103.261 126.69Z" fill="#767676"/>
    <path d="M77.8649 175.74H79.6912L94.6455 127.953L91.7088 127.926L77.8649 175.74Z" fill="#CAD6AD"/>
    <path d="M195.617 175.74H197.443L183.718 127.415L180.947 127.761L195.617 175.74Z" fill="#CAD6AD"/>
    <path d="M200.202 128.027H75.1065C74.5594 128.027 74.1161 127.583 74.1161 127.036V125.623C74.1161 124.848 74.7441 124.22 75.5189 124.22H199.789C200.564 124.22 201.192 124.848 201.192 125.623V127.036C201.192 127.583 200.749 128.027 200.202 128.027Z" fill="#CAD6AD"/>
    <path d="M173.736 104.07H149.548C149.118 104.07 148.801 104.34 148.757 104.745L146.775 122.854C146.702 123.519 147.37 124.22 148.077 124.22H171.852C172.283 124.22 172.599 123.95 172.643 123.545L174.668 105.048C174.72 104.572 174.242 104.07 173.736 104.07Z" fill="url(#paint0_radial_783_2273)"/>
    <path d="M147.859 123.167L149.834 105.122H173.541L171.566 123.167H147.859Z" fill="#FDFDFD"/>
    <path d="M152.975 122.906H131.213C130.85 122.906 130.629 123.2 130.72 123.563C130.811 123.926 131.179 124.22 131.542 124.22H153.304C153.667 124.22 153.888 123.926 153.797 123.563C153.706 123.2 153.338 122.906 152.975 122.906Z" fill="url(#paint1_radial_783_2273)"/>
    <path d="M171.044 122.906H149.282C148.919 122.906 148.698 123.2 148.789 123.563C148.88 123.926 149.248 124.22 149.611 124.22H171.373C171.736 124.22 171.957 123.926 171.866 123.563C171.775 123.2 171.407 122.906 171.044 122.906Z" fill="url(#paint2_radial_783_2273)"/>
    <path d="M131.474 162.609L130.018 165.74L127.16 165.557L127.883 162.609H131.474Z" fill="#FFE0D9"/>
    <path d="M109.716 164.604L109.152 166.512L111.705 167.492L112.783 165.581L109.716 164.604Z" fill="#FFE0D9"/>
    <path d="M114.163 102.66L114.916 97.0243L119.226 88.02L123.683 86.2658L125.016 90.2103C125.133 90.5579 125.099 90.9389 124.92 91.2594L124.448 92.1096C124.346 92.2924 124.29 92.4974 124.284 92.7067L124.206 95.5861C124.195 95.9899 123.997 96.3659 123.67 96.6034L121.555 98.1405C121.234 98.374 121.037 98.741 121.02 99.1374L120.885 102.286L114.163 102.66Z" fill="#FFE0D9"/>
    <path d="M120.173 95.0616C120.173 95.0616 119.074 94.6343 116.978 93.9613C116.8 93.9037 116.621 93.8612 116.443 93.833L114.915 97.0243L114.261 101.927C114.895 102.045 115.489 102.091 115.805 102.238C116.796 102.698 117.908 102.256 118.405 101.663C118.845 101.137 119.152 99.9628 119.122 97.5868C119.112 96.7959 120.173 95.0616 120.173 95.0616Z" fill="#FFE0D9"/>
    <path d="M114.915 97.0243L113.475 91.2604C112.783 88.4889 113.987 85.5907 116.439 84.1249L117.377 83.5643C119.102 82.5327 121.098 82.0451 123.105 82.1645L124.03 82.2195C125.783 82.324 127.012 83.9931 126.591 85.698C126.418 86.3976 125.983 87.0039 125.376 87.3919L122.08 89.4992C121.838 89.6534 121.662 89.8919 121.586 90.1682L120.417 94.4076C119.878 96.3657 117.929 97.5845 115.932 97.2133L114.915 97.0243Z" fill="#303030"/>
    <path d="M122.39 92.2748C122.547 93.176 121.943 94.0334 121.042 94.1899C120.141 94.3464 119.283 93.743 119.127 92.8418C118.97 91.9405 119.574 91.083 120.475 90.9265C121.376 90.77 122.234 91.3736 122.39 92.2748Z" fill="#FFE0D9"/>
    <path d="M127.461 164.331L126.524 167.241C126.383 167.677 126.644 168.14 127.089 168.247L129.453 169.016L129.855 168.451L131.474 168.877C133.41 169.922 135.73 169.974 137.711 169.017C138.081 168.838 138.094 168.315 137.733 168.118L130.537 164.625L127.461 164.331Z" fill="#CCFC5F"/>
    <path d="M109.152 166.512L111.705 167.492L112.994 168.604H107.8L109.152 166.512Z" fill="#CCFC5F"/>
    <path d="M126.674 132.817L103.429 136.601L105.972 105.899C106.063 100.842 111.459 100.076 114.642 99.075C114.708 100.507 119.971 99.7272 121.02 99.1374C122.229 99.342 124.948 99.2468 124.948 99.2468L127.737 107.981L126.674 132.817Z" fill="#9DD616"/>
    <path d="M119.269 89.4336L119.638 91.4309L122.949 92.738L124.05 90.6203L120.579 89.3533L119.269 89.4336Z" fill="#FFE0D9"/>
    <path d="M120.499 89.8411L120.58 89.3533C120.58 89.3533 116.822 87.0999 115.23 88.0373C114.666 88.3694 113.689 89.4983 114.222 89.6092C117.06 90.2003 117.628 91.5381 119.152 91.7369C119.949 91.206 120.499 89.8411 120.499 89.8411Z" fill="#FFE0D9"/>
    <path d="M118.248 90.4073C118.248 90.4073 117.372 90.8055 117.167 90.8042C116.963 90.8028 115.463 90.9054 115.329 91.0299C115.194 91.1547 115.108 91.4427 115.108 91.4427C115.108 91.4427 116.613 91.5967 116.813 91.6668C117.013 91.737 118.037 91.9847 119.152 91.737C120.266 91.4892 119.774 89.6432 119.774 89.6432L118.248 90.4073Z" fill="#FFE0D9"/>
    <path d="M124.389 99.6781L129.109 97.7368C129.346 97.6396 129.365 97.3117 129.141 97.1879L120.161 92.2306L121.77 89.3682L137.836 95.7275C139.276 96.298 139.557 98.2148 138.341 99.1749L126.36 108.633L124.389 99.6781Z" fill="#9DD616"/>
    <path d="M125.848 148.392H106.013C99.3445 148.392 94.2316 142.47 95.2048 135.873L98.973 110.335C99.5822 106.204 103.127 103.144 107.302 103.144H112.504C116.344 103.144 119.697 105.742 120.657 109.46L125.69 128.969L134.188 129.357C136.733 129.473 138.839 131.377 139.211 133.898C140.337 141.536 134.417 148.392 126.697 148.392H125.848Z" fill="#CAD6AD"/>
    <path d="M116.98 170.932H114.229V148.392H116.98V170.932Z" fill="#EEF3E1"/>
    <path d="M130.634 169.957V171.355H100.575V169.957C100.575 169.21 101.181 168.604 101.928 168.604H129.281C130.028 168.604 130.634 169.21 130.634 169.957Z" fill="#EEF3E1"/>
    <path d="M100.575 170.932H103.326V173.584C103.326 173.984 103.002 174.309 102.601 174.309H101.3C100.9 174.309 100.575 173.984 100.575 173.584V170.932Z" fill="#CAD6AD"/>
    <path d="M127.883 170.932H130.634V173.584C130.634 173.984 130.309 174.309 129.909 174.309H128.608C128.208 174.309 127.883 173.984 127.883 173.584V170.932Z" fill="#CAD6AD"/>
    <path d="M114.229 170.932H116.98V173.584C116.98 173.984 116.656 174.309 116.255 174.309H114.954C114.554 174.309 114.229 173.984 114.229 173.584V170.932Z" fill="#CAD6AD"/>
    <path d="M120.171 151.263H111.038C109.81 151.263 108.815 150.267 108.815 149.039V148.392H122.395V149.039C122.395 150.267 121.399 151.263 120.171 151.263Z" fill="#FDFDFD"/>
    <path d="M122.752 79.3964L122.045 76.756L119.409 77.4622L120.117 80.1026L122.752 79.3964ZM121.239 74.8229C121.005 73.8919 120.892 73.2059 120.894 72.7614C120.892 72.3229 120.968 71.9092 121.114 71.532C121.259 71.1502 121.622 70.5283 122.2 69.6522C123.054 68.3589 123.584 67.3087 123.785 66.5134C123.984 65.7134 123.974 64.904 123.754 64.0803C123.371 62.6542 122.495 61.5874 121.13 60.8788C119.76 60.1714 118.157 60.0612 116.312 60.5556C114.57 61.0222 113.293 61.864 112.485 63.0844C111.677 64.3047 111.402 65.8211 111.657 67.6394L114.114 67.2836C113.969 65.915 114.144 64.8341 114.638 64.041C115.13 63.2432 115.872 62.7165 116.86 62.4517C117.882 62.178 118.834 62.2861 119.722 62.7794C120.607 63.274 121.171 63.9701 121.414 64.8738C121.546 65.3679 121.547 65.862 121.419 66.3452C121.293 66.8331 120.925 67.5319 120.311 68.4583C119.7 69.3787 119.29 70.0687 119.077 70.5191C118.795 71.1396 118.622 71.7205 118.568 72.2699C118.485 72.9981 118.569 73.8182 118.812 74.7266C118.854 74.8819 118.921 75.1113 119.013 75.4194L121.239 74.8229Z" fill="#303030"/>
    <path d="M152.711 67.6326C153.503 67.6326 154.146 68.2701 154.146 69.0553C154.146 69.8405 153.503 70.478 152.711 70.478C151.919 70.478 151.276 69.8405 151.276 69.0553C151.276 68.2701 151.919 67.6326 152.711 67.6326Z" fill="#013243"/>
    <path d="M157.05 67.6326C157.842 67.6326 158.485 68.2701 158.485 69.0553C158.485 69.8405 157.842 70.478 157.05 70.478C156.258 70.478 155.615 69.8405 155.615 69.0553C155.615 68.2701 156.258 67.6326 157.05 67.6326Z" fill="#013243"/>
    <path d="M161.838 67.6326C162.63 67.6326 163.274 68.2701 163.274 69.0553C163.274 69.8405 162.63 70.478 161.838 70.478C161.046 70.478 160.403 69.8405 160.403 69.0553C160.403 68.2701 161.046 67.6326 161.838 67.6326Z" fill="#013243"/>
    <path d="M166.626 67.6326C167.419 67.6326 168.062 68.2701 168.062 69.0553C168.062 69.8405 167.419 70.478 166.626 70.478C165.834 70.478 165.191 69.8405 165.191 69.0553C165.191 68.2701 165.834 67.6326 166.626 67.6326Z" fill="#013243"/>
    </g>
    <defs>
    <radialGradient id="paint0_radial_783_2273" cx="0" cy="0" r="1" gradientUnits="userSpaceOnUse" gradientTransform="translate(160.721 114.145) rotate(90) scale(10.075 13.9512)">
    <stop stop-color="#9DD616"/>
    <stop offset="1" stop-color="#7EAB14"/>
    </radialGradient>
    <radialGradient id="paint1_radial_783_2273" cx="0" cy="0" r="1" gradientUnits="userSpaceOnUse" gradientTransform="translate(142.258 123.563) rotate(90) scale(0.657024 11.5586)">
    <stop stop-color="#9DD616"/>
    <stop offset="1" stop-color="#7EAB14"/>
    </radialGradient>
    <radialGradient id="paint2_radial_783_2273" cx="0" cy="0" r="1" gradientUnits="userSpaceOnUse" gradientTransform="translate(160.328 123.563) rotate(90) scale(0.657024 11.5587)">
    <stop stop-color="#9DD616"/>
    <stop offset="1" stop-color="#7EAB14"/>
    </radialGradient>
    </defs>
    </svg>
    